<?xml version="1.0" encoding="utf-8"?>
<!-- Generator: Adobe Illustrator 18.1.1, SVG Export Plug-In . SVG Version: 6.00 Build 0)  -->
<!DOCTYPE svg PUBLIC "-//W3C//DTD SVG 1.1//EN" "http://www.w3.org/Graphics/SVG/1.1/DTD/svg11.dtd">
<svg version="1.1" id="Layer_1" xmlns="http://www.w3.org/2000/svg" xmlns:xlink="http://www.w3.org/1999/xlink" x="0px" y="0px"
	 viewBox="0 0 311.83 32.375" enable-background="new 0 0 311.83 32.375" xml:space="preserve">
<g>
	<path fill="#FFFFFF" d="M19.775,0.7v1.925c0,0.268-0.044,0.54-0.132,0.813c-0.087,0.274-0.213,0.528-0.376,0.761L6.737,21.98
		h12.688v4.112H0v-2.047c0-0.245,0.041-0.487,0.122-0.727c0.082-0.239,0.198-0.458,0.351-0.656L13.02,4.813H0.893V0.7H19.775z"/>
	<path fill="#FFFFFF" d="M30.047,7.77c1.354,0,2.584,0.216,3.693,0.647c1.107,0.432,2.059,1.047,2.853,1.846
		c0.793,0.799,1.405,1.771,1.837,2.914c0.432,1.144,0.647,2.433,0.647,3.868s-0.216,2.727-0.647,3.876
		c-0.432,1.149-1.044,2.126-1.837,2.931c-0.794,0.805-1.745,1.424-2.853,1.855c-1.109,0.431-2.34,0.647-3.693,0.647
		c-1.364,0-2.604-0.216-3.719-0.647c-1.114-0.432-2.067-1.05-2.86-1.855c-0.794-0.805-1.409-1.782-1.847-2.931
		c-0.438-1.149-0.656-2.441-0.656-3.876s0.219-2.724,0.656-3.868c0.438-1.143,1.053-2.114,1.847-2.914
		c0.793-0.799,1.746-1.415,2.86-1.846S28.683,7.77,30.047,7.77z M30.047,22.732c1.377,0,2.397-0.476,3.063-1.426
		s0.998-2.365,0.998-4.244c0-1.867-0.333-3.275-0.998-4.227c-0.665-0.951-1.686-1.426-3.063-1.426c-1.411,0-2.449,0.476-3.114,1.426
		c-0.665,0.951-0.998,2.36-0.998,4.227c0,1.878,0.333,3.293,0.998,4.244S28.636,22.732,30.047,22.732z"/>
	<path fill="#FFFFFF" d="M42.123,26.092V8.05h2.975c0.606,0,1.009,0.28,1.208,0.84l0.279,1.173c0.315-0.327,0.639-0.63,0.972-0.91
		c0.332-0.28,0.691-0.522,1.076-0.726s0.802-0.365,1.251-0.481S50.82,7.77,51.345,7.77c1.108,0,2.024,0.294,2.748,0.883
		c0.724,0.589,1.271,1.374,1.645,2.354c0.292-0.571,0.65-1.064,1.076-1.479c0.426-0.414,0.893-0.75,1.4-1.006
		c0.508-0.257,1.044-0.446,1.61-0.569C60.39,7.831,60.958,7.77,61.53,7.77c1.015,0,1.913,0.151,2.695,0.455
		c0.781,0.304,1.438,0.75,1.969,1.339c0.53,0.589,0.936,1.31,1.216,2.161c0.28,0.852,0.42,1.82,0.42,2.905v11.462H63V14.63
		c0-2.112-0.904-3.167-2.712-3.167c-0.409,0-0.785,0.067-1.129,0.201c-0.345,0.134-0.647,0.335-0.91,0.604
		c-0.263,0.269-0.467,0.601-0.612,0.998c-0.146,0.397-0.219,0.852-0.219,1.365v11.462h-4.83V14.63c0-1.144-0.225-1.957-0.674-2.441
		c-0.449-0.484-1.111-0.726-1.986-0.726c-0.56,0-1.088,0.131-1.584,0.394c-0.496,0.263-0.96,0.627-1.391,1.094v13.143H42.123z"/>
	<path fill="#FFFFFF" d="M79.467,7.77c1.155,0,2.22,0.184,3.194,0.551c0.974,0.368,1.813,0.901,2.52,1.602
		c0.706,0.7,1.254,1.561,1.646,2.581c0.391,1.021,0.586,2.185,0.586,3.491c0,0.362-0.018,0.659-0.053,0.893s-0.093,0.42-0.175,0.56
		s-0.192,0.236-0.332,0.289c-0.141,0.053-0.321,0.079-0.543,0.079H75.478c0.151,1.691,0.633,2.928,1.443,3.71
		s1.875,1.172,3.193,1.172c0.665,0,1.24-0.079,1.725-0.236c0.483-0.157,0.909-0.333,1.277-0.525
		c0.367-0.192,0.699-0.368,0.997-0.525c0.298-0.158,0.592-0.236,0.884-0.236c0.373,0,0.665,0.14,0.875,0.42l1.4,1.75
		c-0.514,0.595-1.079,1.088-1.698,1.479c-0.618,0.391-1.26,0.7-1.925,0.927s-1.336,0.385-2.013,0.473s-1.329,0.131-1.96,0.131
		c-1.26,0-2.436-0.208-3.525-0.622c-1.092-0.414-2.042-1.026-2.853-1.837c-0.812-0.811-1.45-1.817-1.917-3.019
		s-0.699-2.596-0.699-4.183c0-1.225,0.201-2.38,0.604-3.465s0.982-2.03,1.741-2.835c0.758-0.805,1.68-1.444,2.765-1.917
		S78.103,7.77,79.467,7.77z M79.555,11.165c-1.155,0-2.06,0.33-2.713,0.989c-0.653,0.66-1.079,1.59-1.277,2.792h7.525
		c0-0.501-0.067-0.98-0.201-1.435c-0.135-0.455-0.348-0.857-0.639-1.208c-0.292-0.35-0.659-0.627-1.103-0.831
		S80.173,11.165,79.555,11.165z"/>
	<path fill="#FFFFFF" d="M90.404,26.092V8.05h2.853c0.49,0,0.828,0.087,1.015,0.263c0.187,0.175,0.321,0.479,0.403,0.91l0.244,1.803
		c0.572-1.026,1.234-1.837,1.986-2.433C97.658,7.997,98.536,7.7,99.539,7.7c0.816,0,1.481,0.192,1.995,0.578l-0.314,3.57
		c-0.059,0.233-0.149,0.394-0.271,0.481c-0.123,0.087-0.289,0.131-0.499,0.131c-0.187,0-0.455-0.026-0.805-0.079
		c-0.351-0.052-0.677-0.079-0.98-0.079c-0.887,0-1.59,0.242-2.108,0.726c-0.52,0.484-0.96,1.158-1.321,2.021v11.042H90.404z"/>
	<path fill="#FFFFFF" d="M117.109,17.36v8.732h-5.25V0.7h8.575c1.738,0,3.24,0.204,4.506,0.613c1.266,0.408,2.308,0.977,3.124,1.706
		s1.42,1.596,1.812,2.599c0.391,1.003,0.586,2.094,0.586,3.272c0,1.249-0.204,2.392-0.612,3.43
		c-0.408,1.039-1.027,1.931-1.855,2.677c-0.828,0.747-1.872,1.328-3.132,1.742c-1.261,0.414-2.736,0.621-4.428,0.621H117.109z
		 M117.109,13.335h3.325c1.645,0,2.85-0.396,3.613-1.19c0.765-0.793,1.146-1.878,1.146-3.255c0-0.63-0.096-1.205-0.289-1.724
		c-0.192-0.519-0.483-0.962-0.875-1.33c-0.391-0.367-0.884-0.65-1.479-0.849c-0.595-0.198-1.301-0.297-2.117-0.297h-3.325V13.335z"
		/>
	<path fill="#FFFFFF" d="M133.14,26.092V0h4.83v9.835c0.676-0.619,1.417-1.117,2.222-1.497c0.806-0.379,1.762-0.568,2.87-0.568
		c0.98,0,1.85,0.169,2.607,0.507c0.759,0.338,1.397,0.811,1.917,1.417c0.519,0.607,0.909,1.33,1.172,2.17s0.394,1.762,0.394,2.765
		v11.462h-4.813V14.63c0-1.003-0.233-1.782-0.699-2.336c-0.467-0.554-1.155-0.831-2.065-0.831c-0.688,0-1.327,0.148-1.916,0.446
		c-0.59,0.297-1.152,0.703-1.688,1.216v12.967H133.14z"/>
	<path fill="#FFFFFF" d="M161.121,7.77c1.354,0,2.584,0.216,3.693,0.647c1.107,0.432,2.059,1.047,2.853,1.846
		c0.793,0.799,1.405,1.771,1.837,2.914c0.432,1.144,0.647,2.433,0.647,3.868s-0.216,2.727-0.647,3.876
		c-0.432,1.149-1.044,2.126-1.837,2.931c-0.794,0.805-1.745,1.424-2.853,1.855c-1.109,0.431-2.34,0.647-3.693,0.647
		c-1.364,0-2.604-0.216-3.719-0.647c-1.114-0.432-2.067-1.05-2.86-1.855c-0.794-0.805-1.409-1.782-1.847-2.931
		c-0.438-1.149-0.656-2.441-0.656-3.876s0.219-2.724,0.656-3.868c0.438-1.143,1.053-2.114,1.847-2.914
		c0.793-0.799,1.746-1.415,2.86-1.846S159.757,7.77,161.121,7.77z M161.121,22.732c1.377,0,2.397-0.476,3.063-1.426
		s0.998-2.365,0.998-4.244c0-1.867-0.333-3.275-0.998-4.227c-0.665-0.951-1.686-1.426-3.063-1.426c-1.411,0-2.449,0.476-3.114,1.426
		c-0.665,0.951-0.998,2.36-0.998,4.227c0,1.878,0.333,3.293,0.998,4.244S159.71,22.732,161.121,22.732z"/>
	<path fill="#FFFFFF" d="M179.076,26.372c-0.816,0-1.54-0.12-2.17-0.358c-0.63-0.239-1.161-0.581-1.593-1.024
		s-0.758-0.98-0.979-1.61s-0.333-1.342-0.333-2.135v-9.73h-1.697c-0.257,0-0.476-0.082-0.656-0.245
		c-0.181-0.164-0.271-0.409-0.271-0.735v-1.89l2.888-0.525l0.98-4.672c0.128-0.525,0.483-0.788,1.067-0.788h2.52v5.495h4.655v3.36
		h-4.655v9.415c0,0.502,0.12,0.898,0.359,1.19c0.238,0.292,0.58,0.438,1.023,0.438c0.233,0,0.432-0.026,0.595-0.079
		c0.163-0.052,0.304-0.111,0.42-0.175c0.117-0.064,0.225-0.123,0.324-0.175c0.099-0.052,0.201-0.079,0.306-0.079
		c0.141,0,0.257,0.032,0.351,0.096c0.093,0.064,0.187,0.172,0.28,0.324l1.452,2.31c-0.665,0.525-1.418,0.922-2.258,1.19
		S179.975,26.372,179.076,26.372z"/>
	<path fill="#FFFFFF" d="M194.196,7.77c1.354,0,2.584,0.216,3.692,0.647s2.059,1.047,2.853,1.846
		c0.793,0.799,1.405,1.771,1.838,2.914c0.431,1.144,0.647,2.433,0.647,3.868s-0.217,2.727-0.647,3.876
		c-0.433,1.149-1.045,2.126-1.838,2.931c-0.794,0.805-1.744,1.424-2.853,1.855c-1.108,0.431-2.339,0.647-3.692,0.647
		c-1.365,0-2.604-0.216-3.719-0.647c-1.114-0.432-2.068-1.05-2.861-1.855c-0.794-0.805-1.409-1.782-1.847-2.931
		c-0.438-1.149-0.656-2.441-0.656-3.876s0.219-2.724,0.656-3.868c0.438-1.143,1.053-2.114,1.847-2.914
		c0.793-0.799,1.747-1.415,2.861-1.846S192.831,7.77,194.196,7.77z M194.196,22.732c1.376,0,2.397-0.476,3.063-1.426
		s0.997-2.365,0.997-4.244c0-1.867-0.332-3.275-0.997-4.227c-0.665-0.951-1.687-1.426-3.063-1.426c-1.412,0-2.45,0.476-3.115,1.426
		c-0.665,0.951-0.997,2.36-0.997,4.227c0,1.878,0.332,3.293,0.997,4.244S192.784,22.732,194.196,22.732z"/>
	<path fill="#FFFFFF" d="M212.991,7.735c0.77,0,1.496,0.079,2.179,0.236c0.683,0.157,1.31,0.382,1.881,0.674h5.303v1.767
		c0,0.28-0.079,0.502-0.236,0.665c-0.157,0.164-0.417,0.286-0.778,0.368l-1.471,0.297c0.198,0.572,0.298,1.185,0.298,1.837
		c0,0.899-0.184,1.707-0.551,2.424c-0.368,0.718-0.873,1.33-1.514,1.837c-0.643,0.508-1.4,0.899-2.275,1.173
		s-1.82,0.411-2.835,0.411c-0.315,0-0.624-0.012-0.928-0.035c-0.304-0.023-0.601-0.058-0.893-0.105
		c-0.479,0.292-0.717,0.619-0.717,0.98c0,0.339,0.166,0.583,0.498,0.735c0.333,0.151,0.771,0.26,1.313,0.324
		c0.543,0.064,1.161,0.105,1.855,0.122c0.693,0.018,1.399,0.056,2.117,0.114c0.718,0.059,1.423,0.161,2.117,0.307
		s1.313,0.385,1.855,0.717c0.542,0.333,0.979,0.773,1.313,1.321c0.332,0.548,0.499,1.254,0.499,2.118
		c0,0.805-0.199,1.586-0.596,2.345s-0.971,1.435-1.724,2.03c-0.752,0.595-1.677,1.073-2.773,1.435
		c-1.097,0.361-2.345,0.542-3.745,0.542c-1.389,0-2.593-0.131-3.613-0.394c-1.021-0.262-1.867-0.612-2.538-1.05
		s-1.17-0.942-1.496-1.514c-0.327-0.572-0.49-1.167-0.49-1.785c0-0.805,0.245-1.487,0.735-2.047s1.16-1.009,2.013-1.348
		c-0.455-0.256-0.817-0.592-1.085-1.006c-0.269-0.414-0.403-0.954-0.403-1.619c0-0.537,0.195-1.1,0.587-1.689
		c0.391-0.589,0.988-1.082,1.794-1.479c-0.922-0.501-1.648-1.164-2.179-1.986c-0.531-0.822-0.797-1.782-0.797-2.879
		c0-0.898,0.184-1.709,0.552-2.432c0.367-0.724,0.877-1.339,1.531-1.846c0.653-0.508,1.423-0.896,2.31-1.164
		C210.99,7.869,211.952,7.735,212.991,7.735z M217.559,26.827c0-0.315-0.1-0.572-0.298-0.77s-0.463-0.355-0.796-0.472
		c-0.332-0.117-0.727-0.202-1.182-0.254c-0.454-0.053-0.938-0.093-1.452-0.123c-0.514-0.029-1.047-0.055-1.602-0.079
		c-0.554-0.023-1.094-0.064-1.618-0.123c-0.409,0.245-0.741,0.534-0.998,0.866s-0.385,0.709-0.385,1.129
		c0,0.292,0.067,0.56,0.201,0.805c0.134,0.245,0.359,0.455,0.674,0.63c0.315,0.175,0.729,0.312,1.242,0.411
		c0.514,0.099,1.155,0.148,1.926,0.148c0.793,0,1.464-0.052,2.012-0.157c0.549-0.105,0.992-0.254,1.33-0.446
		c0.339-0.192,0.581-0.423,0.727-0.691S217.559,27.142,217.559,26.827z M212.991,16.397c0.991,0,1.724-0.251,2.196-0.752
		c0.473-0.502,0.709-1.149,0.709-1.943c0-0.828-0.236-1.479-0.709-1.951s-1.205-0.708-2.196-0.708c-0.992,0-1.721,0.236-2.188,0.708
		s-0.7,1.123-0.7,1.951c0,0.782,0.236,1.426,0.709,1.934C211.285,16.144,212.011,16.397,212.991,16.397z"/>
	<path fill="#FFFFFF" d="M224.873,26.092V8.05h2.853c0.49,0,0.828,0.087,1.015,0.263c0.187,0.175,0.321,0.479,0.403,0.91
		l0.244,1.803c0.572-1.026,1.234-1.837,1.986-2.433c0.753-0.595,1.631-0.893,2.634-0.893c0.816,0,1.481,0.192,1.995,0.578
		l-0.314,3.57c-0.059,0.233-0.149,0.394-0.271,0.481c-0.123,0.087-0.289,0.131-0.499,0.131c-0.187,0-0.455-0.026-0.805-0.079
		c-0.351-0.052-0.677-0.079-0.98-0.079c-0.887,0-1.59,0.242-2.108,0.726c-0.52,0.484-0.96,1.158-1.321,2.021v11.042H224.873z"/>
	<path fill="#FFFFFF" d="M249.794,26.092c-0.455,0-0.803-0.064-1.042-0.192s-0.435-0.396-0.586-0.805l-0.385-1.137
		c-0.455,0.396-0.896,0.744-1.321,1.041s-0.869,0.548-1.33,0.752s-0.951,0.359-1.47,0.464c-0.52,0.105-1.094,0.157-1.725,0.157
		c-0.793,0-1.517-0.105-2.17-0.315s-1.216-0.522-1.688-0.936s-0.837-0.93-1.094-1.549c-0.257-0.618-0.385-1.33-0.385-2.135
		c0-0.665,0.169-1.327,0.508-1.986c0.338-0.659,0.918-1.26,1.741-1.803c0.822-0.542,1.919-0.995,3.29-1.356
		c1.37-0.362,3.088-0.566,5.153-0.613v-0.927c0-1.132-0.239-1.963-0.718-2.494c-0.479-0.53-1.166-0.796-2.064-0.796
		c-0.665,0-1.22,0.079-1.663,0.236c-0.443,0.157-0.831,0.327-1.163,0.507c-0.333,0.181-0.646,0.35-0.937,0.507
		c-0.292,0.158-0.63,0.236-1.015,0.236c-0.339,0-0.622-0.084-0.85-0.254c-0.228-0.169-0.417-0.37-0.568-0.604l-0.857-1.54
		c1.062-0.957,2.234-1.671,3.518-2.144c1.283-0.473,2.671-0.709,4.165-0.709c1.073,0,2.032,0.175,2.879,0.525
		c0.846,0.35,1.563,0.837,2.152,1.461c0.589,0.624,1.041,1.368,1.356,2.231c0.314,0.863,0.472,1.808,0.472,2.835v11.34H249.794z
		 M243.441,23.117c0.793,0,1.487-0.143,2.082-0.429c0.595-0.286,1.184-0.726,1.768-1.321v-2.8c-1.179,0.047-2.158,0.146-2.94,0.297
		c-0.781,0.152-1.402,0.341-1.863,0.569s-0.787,0.49-0.98,0.788c-0.192,0.297-0.288,0.621-0.288,0.971
		c0,0.7,0.195,1.196,0.586,1.487C242.195,22.972,242.741,23.117,243.441,23.117z"/>
	<path fill="#FFFFFF" d="M255.778,31.92V8.05h2.975c0.606,0,1.009,0.28,1.208,0.84l0.367,1.522c0.361-0.396,0.746-0.761,1.155-1.094
		c0.408-0.333,0.846-0.618,1.313-0.857c0.466-0.239,0.968-0.426,1.505-0.56c0.536-0.134,1.12-0.201,1.75-0.201
		c0.968,0,1.857,0.208,2.668,0.621c0.812,0.415,1.508,1.015,2.092,1.803c0.583,0.788,1.038,1.753,1.365,2.896
		c0.326,1.143,0.489,2.45,0.489,3.92c0,1.354-0.184,2.604-0.551,3.753c-0.367,1.149-0.89,2.144-1.566,2.984s-1.49,1.496-2.441,1.969
		s-2.01,0.709-3.176,0.709c-0.98,0-1.812-0.146-2.494-0.438s-1.292-0.688-1.828-1.19v7.193H255.778z M264.388,11.462
		c-0.852,0-1.566,0.169-2.144,0.507s-1.123,0.823-1.636,1.453v7.91c0.454,0.525,0.947,0.892,1.479,1.102
		c0.53,0.21,1.1,0.315,1.706,0.315c0.583,0,1.114-0.111,1.593-0.333c0.478-0.222,0.89-0.569,1.233-1.042s0.609-1.076,0.796-1.811
		c0.187-0.735,0.28-1.61,0.28-2.625c0-1.003-0.078-1.855-0.236-2.555c-0.157-0.7-0.379-1.266-0.665-1.697s-0.633-0.744-1.041-0.937
		S264.89,11.462,264.388,11.462z"/>
	<path fill="#FFFFFF" d="M275.764,26.092V0h4.83v9.835c0.676-0.619,1.417-1.117,2.222-1.497c0.806-0.379,1.762-0.568,2.87-0.568
		c0.98,0,1.85,0.169,2.607,0.507c0.759,0.338,1.397,0.811,1.917,1.417c0.519,0.607,0.909,1.33,1.172,2.17s0.394,1.762,0.394,2.765
		v11.462h-4.813V14.63c0-1.003-0.233-1.782-0.699-2.336c-0.467-0.554-1.155-0.831-2.065-0.831c-0.688,0-1.327,0.148-1.916,0.446
		c-0.59,0.297-1.152,0.703-1.688,1.216v12.967H275.764z"/>
	<path fill="#FFFFFF" d="M302.101,30.94c-0.152,0.326-0.336,0.571-0.552,0.735c-0.216,0.163-0.557,0.245-1.023,0.245h-3.588
		l3.413-7.263L293.105,8.05h4.234c0.386,0,0.683,0.087,0.893,0.263c0.21,0.175,0.361,0.379,0.455,0.612l3.431,8.627
		c0.244,0.688,0.454,1.371,0.63,2.047c0.104-0.35,0.219-0.697,0.341-1.041c0.123-0.344,0.248-0.685,0.376-1.024l3.186-8.61
		c0.093-0.256,0.263-0.466,0.508-0.63c0.244-0.164,0.513-0.245,0.805-0.245h3.867L302.101,30.94z"/>
</g>
</svg>
